<?xml version="1.0" encoding="UTF-8" standalone="no"?><!DOCTYPE svg PUBLIC "-//W3C//DTD SVG 1.1//EN" "http://www.w3.org/Graphics/SVG/1.1/DTD/svg11.dtd"><svg width="100%" height="100%" viewBox="0 0 99 27" version="1.1" xmlns="http://www.w3.org/2000/svg" xmlns:xlink="http://www.w3.org/1999/xlink" xml:space="preserve" xmlns:serif="http://www.serif.com/" style="fill-rule:evenodd;clip-rule:evenodd;stroke-linejoin:round;stroke-miterlimit:2;"><path id="NETFLIX-LOGO" serif:id="NETFLIX LOGO" d="M84.245,25.172c1.374,0.133 2.748,0.277 4.118,0.426l3.026,-7.501l2.876,8.193c1.476,0.185 2.951,0.38 4.421,0.584l-5.042,-14.367l5.044,-12.506l-4.272,0l-0.044,0.062l-2.725,6.756l-2.392,-6.817l-4.218,0l4.354,12.407l-5.146,12.763l-0,-0Zm-3.191,-0.294l0,-24.877l-4.216,0l0,24.528c1.407,0.109 2.813,0.226 4.216,0.349m-31.672,-1.391c1.138,-0 2.275,0.008 3.41,0.018l-0,-9.14l5.065,0l-0,-3.892l-5.065,0l0,-6.575l5.834,0l-0,-3.897l-10.067,0l0,23.489c0.274,0 0.549,-0.004 0.823,-0.003m-13.091,0.238c1.405,-0.051 2.811,-0.093 4.219,-0.127l-0,-19.7l3.941,0l-0,-3.896l-12.101,0l0,3.896l3.942,0l-0,19.827l-0.001,-0Zm-32.246,2.623l-0,-14.821l4.992,14.222c1.535,-0.173 3.073,-0.336 4.615,-0.49l-0,-25.257l-4.046,-0l0,15.351l-5.387,-15.351l-4.219,-0l-0,26.878l0.025,0c1.337,-0.185 2.678,-0.362 4.02,-0.532m24.239,-22.451l0,-3.895l-10.067,-0l0,24.836c3.35,-0.29 6.703,-0.534 10.059,-0.73l0,-3.9c-1.946,0.114 -3.888,0.245 -5.826,0.391l0,-6.232l5.065,0l0,-3.894l-5.065,-0l0,-6.576l5.834,0Zm38.698,16.125l-0,-20.022l-4.235,-0l0,23.739c3.369,0.124 6.724,0.297 10.068,0.515l0,-3.902c-1.941,-0.126 -3.885,-0.235 -5.833,-0.33" style="fill:#ff0e1e;fill-rule:nonzero;"/></svg>