<?xml version="1.0" encoding="UTF-8" standalone="no"?>
<!DOCTYPE svg PUBLIC "-//W3C//DTD SVG 1.1//EN" "http://www.w3.org/Graphics/SVG/1.1/DTD/svg11.dtd">
<svg width="100%" height="100%" viewBox="0 0 171 47" version="1.1" xmlns="http://www.w3.org/2000/svg" xmlns:xlink="http://www.w3.org/1999/xlink" xml:space="preserve" xmlns:serif="http://www.serif.com/" style="fill-rule:evenodd;clip-rule:evenodd;stroke-linejoin:round;stroke-miterlimit:2;">
    <g transform="matrix(1,0,0,1,-1053.3,-777.061)">
        <g id="XILFTEN-LOGO" serif:id="XILFTEN LOGO" transform="matrix(-1.72973,0,0,1.72973,1423.97,705.326)">
            <path d="M199.879,66.578C201.253,66.712 202.627,66.855 203.998,67.004L206.997,59.568L209.833,67.647C211.309,67.833 212.784,68.028 214.254,68.231L209.252,53.978L214.296,41.473L210.024,41.473L209.98,41.534L207.255,48.29L204.863,41.474L200.645,41.474L204.999,53.88L199.879,66.578L199.879,66.578ZM196.662,66.286L196.662,41.473L192.446,41.473L192.446,65.937C193.853,66.046 195.259,66.163 196.662,66.286M170.001,64.945L170.001,55.837L164.936,55.837L164.936,51.945L170.001,51.945L170.001,45.37L164.167,45.37L164.167,41.473L174.234,41.473L174.234,65.025C173.003,64.991 171.493,64.961 170.001,64.945M151.899,65.134C153.304,65.084 154.71,65.042 156.118,65.007L156.118,45.37L160.059,45.37L160.059,41.474L147.958,41.474L147.958,45.37L151.9,45.37L151.9,65.134L151.899,65.134ZM125.215,67.061L125.215,52.998L120.027,67.657L115.608,68.224L115.608,41.473L119.654,41.473L119.654,56.825L125.041,41.473L129.26,41.473L129.26,66.628M133.825,45.369L133.825,41.473L143.892,41.473L143.892,65.52C140.719,65.679 137.198,65.937 133.833,66.216L133.833,61.278L139.659,60.887L139.659,55.839L134.594,55.839L134.594,51.944L139.659,51.944L139.659,45.369L133.825,45.369ZM184.189,61.278L184.189,41.472L188.423,41.472L188.423,65.669C185.055,65.455 181.957,65.288 178.355,65.167L178.355,60.941L184.189,61.278" style="fill:rgb(255,14,30);fill-rule:nonzero;"/>
        </g>
    </g>
</svg>
